Coordinates
version=1
nRows=13
nColumns=63
inDegrees=yes

Units are S.I. units (second, meters, Newtons, ...)
If the header above contains a line with 'inDegrees', this indicates whether rotational values are in degrees (yes) or radians (no).

endheader
time	pelvis_tilt	pelvis_list	pelvis_rotation	pelvis_tx	pelvis_ty	pelvis_tz	hip_flexion_r	hip_adduction_r	hip_rotation_r	knee_angle_r	knee_angle_r_beta	ankle_angle_r	subtalar_angle_r	mtp_angle_r	hip_flexion_l	hip_adduction_l	hip_rotation_l	knee_angle_l	knee_angle_l_beta	ankle_angle_l	subtalar_angle_l	mtp_angle_l	L5_S1_Flex_Ext	L5_S1_Lat_Bending	L5_S1_axial_rotation	L4_L5_Flex_Ext	L4_L5_Lat_Bending	L4_L5_axial_rotation	L3_L4_Flex_Ext	L3_L4_Lat_Bending	L3_L4_axial_rotation	L2_L3_Flex_Ext	L2_L3_Lat_Bending	L2_L3_axial_rotation	L1_L2_Flex_Ext	L1_L2_Lat_Bending	L1_L2_axial_rotation	L1_T12_Flex_Ext	L1_T12_Lat_Bending	L1_T12_axial_rotation	Abs_r3	Abs_r2	Abs_r1	Abs_t1	Abs_t2	neck_flexion	neck_bending	neck_rotation	arm_flex_r	arm_add_r	arm_rot_r	elbow_flex_r	pro_sup_r	wrist_flex_r	wrist_dev_r	arm_flex_l	arm_add_l	arm_rot_l	elbow_flex_l	pro_sup_l	wrist_flex_l	wrist_dev_l
2.500000	10.938015	-2.107302	101.342532	0.304161	1.062404	0.378284	-4.485386	7.080736	-21.529258	7.007710	0.122308	34.679722	17.221257	0.000000	1.859660	-5.997939	1.094512	15.793336	0.275646	38.232437	7.566972	0.000000	0.257504	0.711485	-2.589130	0.478211	0.946276	-2.750950	0.423054	1.729906	-2.750950	0.294301	1.729906	-2.265488	0.239118	1.450861	-2.103668	0.147138	1.102091	-1.941847	1.839326	8.048465	-14.399962	0.000000	0.000000	6.593841	-0.181453	4.919562	10.774713	-6.615192	62.227723	44.618125	17.450599	1.660944	23.978884	9.954839	-4.038981	55.452407	46.632029	44.579329	-0.122797	7.379091
2.516667	10.913039	-2.146073	101.328721	0.304256	1.062318	0.378329	-4.449061	7.055407	-21.506966	6.994853	0.122083	34.739416	17.189577	0.000000	1.963038	-5.989154	1.069749	15.955634	0.278478	38.287839	7.656012	0.000000	0.257784	0.705967	-2.583524	0.478731	0.938936	-2.744994	0.423513	1.716489	-2.744994	0.294621	1.716489	-2.260583	0.239378	1.439608	-2.099113	0.147298	1.093543	-1.937643	1.841325	7.986043	-14.368784	0.000000	0.000000	6.723392	-0.107860	4.821030	10.804557	-6.609258	62.250005	44.589546	17.883324	1.764355	23.866874	9.929590	-4.077892	55.429216	46.680586	44.571025	-0.110486	7.559949
2.533333	10.874621	-2.177678	101.345679	0.304293	1.062219	0.378355	-4.430321	7.019999	-21.529063	6.963962	0.121544	34.829135	17.191203	0.000000	2.061448	-5.969064	1.063767	16.113993	0.281242	38.354727	7.779029	0.000000	0.257212	0.698711	-2.584408	0.477669	0.929285	-2.745934	0.422574	1.698845	-2.745934	0.293968	1.698845	-2.261357	0.238847	1.424811	-2.099832	0.146971	1.082303	-1.938306	1.837242	7.903956	-14.373703	0.000000	0.000000	6.870278	-0.013479	4.720048	10.788237	-6.590285	62.225008	44.564885	18.132435	1.808854	23.629959	9.884424	-4.114271	55.361312	46.731104	44.601453	-0.112437	7.765690
2.550000	10.814437	-2.214156	101.363432	0.304318	1.062107	0.378345	-4.415453	6.963185	-21.480030	6.921622	0.120805	34.946158	17.129736	0.000000	2.155902	-5.921202	1.095828	16.260278	0.283795	38.426308	7.883602	0.000000	0.257754	0.688635	-2.586285	0.478674	0.915884	-2.747928	0.423463	1.674347	-2.747928	0.294587	1.674347	-2.262999	0.239350	1.404264	-2.101356	0.147280	1.066696	-1.939714	1.841108	7.789976	-14.384140	0.000000	0.000000	7.014338	0.090319	4.606449	10.730523	-6.551030	62.133988	44.520168	18.545603	1.880277	23.266586	9.829022	-4.155448	55.282765	46.775545	44.684800	-0.110668	7.949863
2.566667	10.738670	-2.250206	101.391109	0.304311	1.061987	0.378319	-4.406886	6.890076	-21.421832	6.872206	0.119943	35.080865	17.058484	0.000000	2.239791	-5.858615	1.108087	16.382950	0.285936	38.503749	8.030740	0.000000	0.258134	0.676676	-2.589845	0.479381	0.899979	-2.751710	0.424089	1.645269	-2.751710	0.295022	1.645269	-2.266114	0.239703	1.379877	-2.104249	0.147498	1.048170	-1.942384	1.843827	7.654690	-14.403941	0.000000	0.000000	7.158790	0.187291	4.479462	10.639155	-6.501832	61.963625	44.486888	18.877115	1.914818	22.858216	9.767304	-4.192539	55.179668	46.817234	44.823736	-0.135777	8.120262
2.583333	10.658864	-2.290103	101.452522	0.304250	1.061848	0.378321	-4.394352	6.812438	-21.399718	6.819228	0.119018	35.224940	16.997313	0.000000	2.345376	-5.789287	1.125875	16.525587	0.288426	38.595227	8.198631	0.000000	0.258891	0.663931	-2.601153	0.480786	0.883029	-2.763725	0.425332	1.614283	-2.763725	0.295886	1.614283	-2.276009	0.240406	1.353889	-2.113437	0.147930	1.028430	-1.950865	1.849231	7.510524	-14.466831	0.000000	0.000000	7.299621	0.288879	4.353923	10.565994	-6.457281	61.838715	44.479282	18.824294	1.872740	22.425378	9.693995	-4.229964	55.036893	46.872592	44.998049	-0.202500	8.262911
2.600000	10.582325	-2.330894	101.531949	0.304150	1.061693	0.378344	-4.380082	6.736004	-21.400811	6.765746	0.118085	35.368174	16.947435	0.000000	2.464625	-5.733970	1.035658	16.688568	0.291270	38.705990	8.497759	0.000000	0.259773	0.651571	-2.615404	0.482424	0.866589	-2.778867	0.426780	1.584229	-2.778867	0.296894	1.584229	-2.288478	0.241225	1.328683	-2.125016	0.148434	1.009283	-1.961553	1.855529	7.370698	-14.546092	0.000000	0.000000	7.432905	0.379354	4.216141	10.492030	-6.417894	61.666680	44.505869	18.631953	1.758802	22.055128	9.614968	-4.254303	54.854697	46.927254	45.227880	-0.289083	8.379540
2.616667	10.514070	-2.372475	101.618327	0.304010	1.061527	0.378383	-4.362613	6.664413	-21.400112	6.716139	0.117219	35.499010	16.886243	0.000000	2.587596	-5.686652	0.914718	16.857942	0.294227	38.803754	8.800710	0.000000	0.261009	0.640628	-2.632337	0.484720	0.852036	-2.796858	0.428812	1.557624	-2.796858	0.298307	1.557624	-2.303294	0.242373	1.306369	-2.138773	0.149141	0.992333	-1.974252	1.864363	7.246915	-14.640266	0.000000	0.000000	7.557167	0.462172	4.098832	10.440307	-6.390071	61.517804	44.550274	18.255657	1.634487	21.753161	9.525518	-4.265015	54.626982	46.986733	45.488887	-0.400292	8.480118
2.633333	10.468585	-2.409786	101.725959	0.303833	1.061346	0.378455	-4.342540	6.614675	-21.439530	6.674610	0.116494	35.610208	16.837994	0.000000	2.727034	-5.679765	0.651289	17.061524	0.297780	38.919628	9.271516	0.000000	0.262034	0.632754	-2.654191	0.486624	0.841563	-2.820078	0.430496	1.538479	-2.820078	0.299479	1.538479	-2.322417	0.243325	1.290313	-2.156530	0.149726	0.980137	-1.990643	1.871686	7.157845	-14.761813	0.000000	0.000000	7.675328	0.529053	3.998846	10.395964	-6.369878	61.349375	44.602869	17.872686	1.539247	21.538571	9.433070	-4.259881	54.359189	47.041635	45.788748	-0.494920	8.571933
2.650000	10.444749	-2.443213	101.837826	0.303615	1.061162	0.378542	-4.320741	6.582622	-21.492397	6.644380	0.115966	35.692476	16.789902	0.000000	2.864786	-5.698196	0.321785	17.267848	0.301381	39.021725	9.786843	0.000000	0.263585	0.628339	-2.677768	0.489504	0.835690	-2.845128	0.433044	1.527743	-2.845128	0.301252	1.527743	-2.343047	0.244765	1.281308	-2.175686	0.150613	0.973297	-2.008326	1.882763	7.107892	-14.892941	0.000000	0.000000	7.771867	0.578700	3.931080	10.350576	-6.366521	61.175426	44.677784	17.380943	1.403293	21.420798	9.357326	-4.241257	54.120971	47.079801	46.028716	-0.567162	8.637787
2.666667	10.448091	-2.470048	101.942795	0.303377	1.060984	0.378641	-4.296856	6.574401	-21.542559	6.629364	0.115704	35.738722	16.732668	0.000000	2.996914	-5.747990	-0.073677	17.472630	0.304955	39.117594	10.343984	0.000000	0.265157	0.628153	-2.701945	0.492423	0.835443	-2.870817	0.435626	1.527290	-2.870817	0.303048	1.527290	-2.364202	0.246225	1.280929	-2.195330	0.151511	0.973009	-2.026459	1.893990	7.105789	-15.027409	0.000000	0.000000	7.843999	0.609437	3.909655	10.314646	-6.380023	61.039442	44.759168	16.735103	1.258813	21.382378	9.309639	-4.213736	53.947709	47.095018	46.172771	-0.601120	8.656769
2.683333	10.473352	-2.488696	102.014120	0.303151	1.060836	0.378720	-4.277222	6.584519	-21.559787	6.625655	0.115640	35.743664	16.666234	0.000000	3.101023	-5.820509	-0.526278	17.643859	0.307943	39.199572	10.907898	0.000000	0.266617	0.631610	-2.720680	0.495134	0.840042	-2.890723	0.438024	1.535697	-2.890723	0.304716	1.535697	-2.380595	0.247580	1.287980	-2.210553	0.152345	0.978364	-2.040510	1.904415	7.144901	-15.131607	0.000000	0.000000	7.884297	0.619443	3.917096	10.292501	-6.415680	60.966281	44.851798	15.926875	1.082913	21.412938	9.311040	-4.182006	53.906888	47.076069	46.164624	-0.586769	8.608930
2.700000	10.513434	-2.499364	102.076540	0.302912	1.060719	0.378779	-4.262587	6.608164	-21.588022	6.632475	0.115759	35.712000	16.615668	0.000000	3.178281	-5.896882	-0.917239	17.769612	0.310138	39.257418	11.372561	0.000000	0.267882	0.637533	-2.737924	0.497484	0.847918	-2.909044	0.440104	1.550097	-2.909044	0.306163	1.550097	-2.395683	0.248755	1.300056	-2.224563	0.153068	0.987538	-2.053443	1.913456	7.211896	-15.227510	0.000000	0.000000	7.900244	0.607433	3.941131	10.306510	-6.466178	61.012087	44.934365	14.985752	0.917756	21.483054	9.370489	-4.156333	54.029081	47.027771	45.978727	-0.535155	8.486236
